<svg xmlns="http://www.w3.org/2000/svg" width="32" height="32" viewBox="0 0 24 24"><defs><linearGradient id="g" x1="0" y1="0" x2="1" y2="1"><stop offset="0%" stop-color="#667eea"/><stop offset="100%" stop-color="#764ba2"/></linearGradient></defs><path fill="url(#g)" d="M21 7h-2V6a2 2 0 0 0-2-2H5a2 2 0 0 0-2 2v1H1v2h2v7a2 2 0 0 0 2 2h12a2 2 0 0 0 2-2V9h2zm-4 9H5V6h12zm-9-7h2v2H8zm4 0h2v2h-2z"/><circle cx="19" cy="4" r="3" fill="#667eea"/><path fill="#fff" d="M19 2.5l.4 1h1l-.8.6.3 1-.9-.6-.9.6.3-1-.8-.6h1z"/></svg>